<?xml version="1.0" encoding="UTF-8" standalone="no"?>
<!-- Created with Inkscape (http://www.inkscape.org/) -->

<svg
   xmlns:dc="http://purl.org/dc/elements/1.1/"
   xmlns:cc="http://creativecommons.org/ns#"
   xmlns:rdf="http://www.w3.org/1999/02/22-rdf-syntax-ns#"
   xmlns:svg="http://www.w3.org/2000/svg"
   xmlns="http://www.w3.org/2000/svg"
   xmlns:sodipodi="http://sodipodi.sourceforge.net/DTD/sodipodi-0.dtd"
   xmlns:inkscape="http://www.inkscape.org/namespaces/inkscape"
   width="88.789757mm"
   height="8.5824232mm"
   viewBox="0 0 314.60937 30.410161"
   id="svg2"
   version="1.1"
   inkscape:version="0.91 r13725"
   sodipodi:docname="banner.svg"
   inkscape:export-filename="/Users/cthiel/devel/technical-reference/images/banner-color.png"
   inkscape:export-xdpi="443.93057"
   inkscape:export-ydpi="443.93057">
  <defs
     id="defs4" />
  <sodipodi:namedview
     id="base"
     pagecolor="#ffffff"
     bordercolor="#666666"
     borderopacity="1.0"
     inkscape:pageopacity="0.0"
     inkscape:pageshadow="2"
     inkscape:zoom="3.6170169"
     inkscape:cx="119.80885"
     inkscape:cy="-9.6680105"
     inkscape:document-units="px"
     inkscape:current-layer="layer1"
     showgrid="false"
     showguides="true"
     inkscape:guide-bbox="true"
     inkscape:window-width="1920"
     inkscape:window-height="1156"
     inkscape:window-x="0"
     inkscape:window-y="0"
     inkscape:window-maximized="1"
     fit-margin-top="0"
     fit-margin-left="0"
     fit-margin-right="0"
     fit-margin-bottom="0">
    <sodipodi:guide
       position="22.825447,0.76182839"
       orientation="0,1"
       id="guide3344" />
    <sodipodi:guide
       position="16.463148,29.588539"
       orientation="0,1"
       id="guide3346" />
  </sodipodi:namedview>
  <metadata
     id="metadata7">
    <rdf:RDF>
      <cc:Work
         rdf:about="">
        <dc:format>image/svg+xml</dc:format>
        <dc:type
           rdf:resource="http://purl.org/dc/dcmitype/StillImage" />
        <dc:title></dc:title>
      </cc:Work>
    </rdf:RDF>
  </metadata>
  <g
     inkscape:label="Layer 1"
     inkscape:groupmode="layer"
     id="layer1"
     transform="translate(-268.93695,-216.97995)">
    <path
       inkscape:connector-curvature="0"
       id="path3349"
       style="font-style:normal;font-variant:normal;font-weight:bold;font-stretch:normal;font-size:medium;line-height:125%;font-family:Helvetica;-inkscape-font-specification:'Helvetica Bold';letter-spacing:0px;word-spacing:0px;fill:#074f6f;fill-opacity:0.94117647;stroke:none;stroke-width:1px;stroke-linecap:butt;stroke-linejoin:miter;stroke-opacity:1"
       d="m 290.05023,222.95651 -15.23437,0 0,6.11328 13.98437,0 0,5 -13.98437,0 0,7.40235 15.9375,0 0,5.17578 -21.81641,0 0,-28.78906 21.11328,0 0,5.09765 z" />
    <path
       inkscape:connector-curvature="0"
       id="path3351"
       style="font-style:normal;font-variant:normal;font-weight:bold;font-stretch:normal;font-size:medium;line-height:125%;font-family:Helvetica;-inkscape-font-specification:'Helvetica Bold';letter-spacing:0px;word-spacing:0px;fill:#074f6f;fill-opacity:0.94117647;stroke:none;stroke-width:1px;stroke-linecap:butt;stroke-linejoin:miter;stroke-opacity:1"
       d="m 295.47992,217.85886 6.11328,0 0,17.69531 q 0,2.96875 0.70313,4.33594 1.09375,2.42187 4.76562,2.42187 3.65234,0 4.74609,-2.42187 0.70313,-1.36719 0.70313,-4.33594 l 0,-17.69531 6.11328,0 0,17.69531 q 0,4.58984 -1.42578,7.14844 -2.65625,4.6875 -10.13672,4.6875 -7.48047,0 -10.15625,-4.6875 -1.42578,-2.5586 -1.42578,-7.14844 l 0,-17.69531 z m 11.58203,0 0,0 z" />
    <path
       inkscape:connector-curvature="0"
       id="path3353"
       style="font-style:normal;font-variant:normal;font-weight:bold;font-stretch:normal;font-size:medium;line-height:125%;font-family:Helvetica;-inkscape-font-specification:'Helvetica Bold';letter-spacing:0px;word-spacing:0px;fill:#074f6f;fill-opacity:0.94117647;stroke:none;stroke-width:1px;stroke-linecap:butt;stroke-linejoin:miter;stroke-opacity:1"
       d="m 330.40179,222.85886 0,7.73437 6.81641,0 q 2.03125,0 3.04688,-0.46875 1.79687,-0.82031 1.79687,-3.24219 0,-2.61718 -1.73828,-3.51562 -0.97656,-0.50781 -2.92969,-0.50781 l -6.99219,0 z m 8.24219,-5 q 3.02735,0.0586 4.64844,0.74218 1.64062,0.6836 2.77344,2.01172 0.9375,1.09375 1.48437,2.42188 0.54688,1.32812 0.54688,3.02734 0,2.05078 -1.03516,4.04297 -1.03516,1.97266 -3.41797,2.79297 1.99219,0.80078 2.8125,2.28515 0.83985,1.46485 0.83985,4.49219 l 0,1.9336 q 0,1.97265 0.15625,2.67578 0.23437,1.11328 1.09375,1.64062 l 0,0.72266 -6.6211,0 q -0.27344,-0.95703 -0.39062,-1.54297 -0.23438,-1.21094 -0.25391,-2.48047 l -0.0391,-2.67578 q -0.0391,-2.75391 -1.01563,-3.67188 -0.95703,-0.91796 -3.61328,-0.91796 l -6.21094,0 0,11.28906 -5.8789,0 0,-28.78906 14.12109,0 z" />
    <path
       inkscape:connector-curvature="0"
       id="path3355"
       style="font-style:normal;font-variant:normal;font-weight:bold;font-stretch:normal;font-size:medium;line-height:125%;font-family:Helvetica;-inkscape-font-specification:'Helvetica Bold';letter-spacing:0px;word-spacing:0px;fill:#074f6f;fill-opacity:0.94117647;stroke:none;stroke-width:1px;stroke-linecap:butt;stroke-linejoin:miter;stroke-opacity:1"
       d="m 358.80023,246.64792 -5.97656,0 0,-28.78906 5.97656,0 0,28.78906 z m -2.98828,-29.35547 0,0 z" />
    <path
       inkscape:connector-curvature="0"
       id="path3357"
       style="font-style:normal;font-variant:normal;font-weight:bold;font-stretch:normal;font-size:medium;line-height:125%;font-family:Helvetica;-inkscape-font-specification:'Helvetica Bold';letter-spacing:0px;word-spacing:0px;fill:#074f6f;fill-opacity:0.94117647;stroke:none;stroke-width:1px;stroke-linecap:butt;stroke-linejoin:miter;stroke-opacity:1"
       d="m 368.81976,237.7612 q 0.27344,1.97266 1.07422,2.94922 1.46485,1.77734 5.01953,1.77734 2.12891,0 3.45703,-0.46875 2.51954,-0.89844 2.51954,-3.33984 0,-1.42578 -1.25,-2.20703 -1.25,-0.76172 -3.92579,-1.34766 l -3.04687,-0.68359 q -4.49219,-1.01563 -6.21094,-2.20703 -2.91015,-1.99219 -2.91015,-6.23047 0,-3.86719 2.8125,-6.42578 2.8125,-2.5586 8.26171,-2.5586 4.55079,0 7.75391,2.42188 3.22266,2.40234 3.37891,6.99218 l -5.78125,0 q -0.15625,-2.59765 -2.26563,-3.6914 -1.40625,-0.72266 -3.49609,-0.72266 -2.32422,0 -3.71094,0.9375 -1.38672,0.9375 -1.38672,2.61719 0,1.54297 1.36719,2.30469 0.87891,0.50781 3.75,1.1914 l 4.96094,1.19141 q 3.26172,0.78125 4.92187,2.08984 2.57813,2.03125 2.57813,5.87891 0,3.94531 -3.02735,6.5625 -3.00781,2.59766 -8.51562,2.59766 -5.625,0 -8.84766,-2.5586 -3.22265,-2.57812 -3.22265,-7.07031 l 5.74218,0 z m 5.83985,-20.78125 0,0 z" />
    <path
       inkscape:connector-curvature="0"
       id="path3359"
       style="font-style:normal;font-variant:normal;font-weight:bold;font-stretch:normal;font-size:medium;line-height:125%;font-family:Helvetica;-inkscape-font-specification:'Helvetica Bold';letter-spacing:0px;word-spacing:0px;fill:#074f6f;fill-opacity:0.94117647;stroke:none;stroke-width:1px;stroke-linecap:butt;stroke-linejoin:miter;stroke-opacity:1"
       d="m 412.39398,222.95651 -15.23437,0 0,6.11328 13.98437,0 0,5 -13.98437,0 0,7.40235 15.9375,0 0,5.17578 -21.81641,0 0,-28.78906 21.11328,0 0,5.09765 z" />
    <path
       inkscape:connector-curvature="0"
       id="path3361"
       style="font-style:normal;font-variant:normal;font-weight:bold;font-stretch:normal;font-size:medium;line-height:125%;font-family:Helvetica;-inkscape-font-specification:'Helvetica Bold';letter-spacing:0px;word-spacing:0px;fill:#eebf3f;fill-opacity:1;stroke:none;stroke-width:1px;stroke-linecap:butt;stroke-linejoin:miter;stroke-opacity:1"
       d="m 428.81976,217.85886 6.3086,0 11.46484,20.09765 0,-20.09765 5.60547,0 0,28.78906 -6.01563,0 -11.75781,-20.44922 0,20.44922 -5.60547,0 0,-28.78906 z m 11.91407,-0.0586 0,0 z" />
    <path
       inkscape:connector-curvature="0"
       id="path3363"
       style="font-style:normal;font-variant:normal;font-weight:bold;font-stretch:normal;font-size:medium;line-height:125%;font-family:Helvetica;-inkscape-font-specification:'Helvetica Bold';letter-spacing:0px;word-spacing:0px;fill:#eebf3f;fill-opacity:1;stroke:none;stroke-width:1px;stroke-linecap:butt;stroke-linejoin:miter;stroke-opacity:1"
       d="m 465.77289,229.38229 q -1.9336,0 -3.00781,1.21094 -1.05469,1.21094 -1.32813,3.28125 l 8.65234,0 q -0.13671,-2.20703 -1.34765,-3.33984 -1.19141,-1.15235 -2.96875,-1.15235 z m 0,-4.58984 q 2.65625,0 4.78515,0.99609 2.12891,0.9961 3.51563,3.14453 1.25,1.89454 1.62109,4.39454 0.21485,1.46484 0.17578,4.21875 l -14.57031,0 q 0.11719,3.20312 2.01172,4.49218 1.15234,0.80078 2.77344,0.80078 1.71875,0 2.79297,-0.97656 0.58593,-0.52734 1.03515,-1.46484 l 5.6836,0 q -0.21485,1.89453 -1.97266,3.84765 -2.73437,3.10547 -7.65625,3.10547 -4.0625,0 -7.16797,-2.61718 -3.10547,-2.61719 -3.10547,-8.51563 0,-5.52734 2.79297,-8.47656 2.8125,-2.94922 7.28516,-2.94922 z m 0.39062,0 0,0 z" />
    <path
       inkscape:connector-curvature="0"
       id="path3365"
       style="font-style:normal;font-variant:normal;font-weight:bold;font-stretch:normal;font-size:medium;line-height:125%;font-family:Helvetica;-inkscape-font-specification:'Helvetica Bold';letter-spacing:0px;word-spacing:0px;fill:#eebf3f;fill-opacity:1;stroke:none;stroke-width:1px;stroke-linecap:butt;stroke-linejoin:miter;stroke-opacity:1"
       d="m 477.45258,229.51901 0,-3.96484 2.96875,0 0,-5.9375 5.50781,0 0,5.9375 3.45703,0 0,3.96484 -3.45703,0 0,11.25 q 0,1.3086 0.33203,1.64063 0.33203,0.3125 2.03125,0.3125 0.25391,0 0.52734,0 0.29297,-0.0195 0.56641,-0.0391 l 0,4.16016 -2.63672,0.0977 q -3.94531,0.13672 -5.39062,-1.36719 -0.9375,-0.95703 -0.9375,-2.94922 l 0,-13.10547 -2.96875,0 z" />
    <path
       inkscape:connector-curvature="0"
       id="path3367"
       style="font-style:normal;font-variant:normal;font-weight:bold;font-stretch:normal;font-size:medium;line-height:125%;font-family:Helvetica;-inkscape-font-specification:'Helvetica Bold';letter-spacing:0px;word-spacing:0px;fill:#eebf3f;fill-opacity:1;stroke:none;stroke-width:1px;stroke-linecap:butt;stroke-linejoin:miter;stroke-opacity:1"
       d="m 503.03851,225.35886 5.64453,0 3.24219,15.33203 3.32031,-15.33203 5.80079,0 -6.17188,21.28906 -5.72266,0 -3.33984,-15.50781 -3.37891,15.50781 -5.78125,0 -5.97656,-21.28906 5.97656,0 3.32032,15.27343 3.0664,-15.27343 z" />
    <path
       inkscape:connector-curvature="0"
       id="path3369"
       style="font-style:normal;font-variant:normal;font-weight:bold;font-stretch:normal;font-size:medium;line-height:125%;font-family:Helvetica;-inkscape-font-specification:'Helvetica Bold';letter-spacing:0px;word-spacing:0px;fill:#eebf3f;fill-opacity:1;stroke:none;stroke-width:1px;stroke-linecap:butt;stroke-linejoin:miter;stroke-opacity:1"
       d="m 533.64398,242.72214 q 2.44141,0 3.75,-1.73828 1.3086,-1.73829 1.3086,-4.94141 0,-3.20313 -1.3086,-4.92188 -1.30859,-1.73828 -3.75,-1.73828 -2.4414,0 -3.76953,1.73828 -1.30859,1.71875 -1.30859,4.92188 0,3.20312 1.30859,4.94141 1.32813,1.73828 3.76953,1.73828 z m 10.89844,-6.67969 q 0,4.6875 -2.69531,8.02734 -2.69532,3.32032 -8.1836,3.32032 -5.48828,0 -8.18359,-3.32032 -2.69531,-3.33984 -2.69531,-8.02734 0,-4.60938 2.69531,-7.98828 2.69531,-3.37891 8.18359,-3.37891 5.48828,0 8.1836,3.37891 2.69531,3.3789 2.69531,7.98828 z m -10.87891,-11.25 0,0 z" />
    <path
       inkscape:connector-curvature="0"
       id="path3371"
       style="font-style:normal;font-variant:normal;font-weight:bold;font-stretch:normal;font-size:medium;line-height:125%;font-family:Helvetica;-inkscape-font-specification:'Helvetica Bold';letter-spacing:0px;word-spacing:0px;fill:#eebf3f;fill-opacity:1;stroke:none;stroke-width:1px;stroke-linecap:butt;stroke-linejoin:miter;stroke-opacity:1"
       d="m 560.0307,224.85104 q 0.15625,0 0.25391,0.0195 0.11718,0 0.48828,0.0195 l 0,5.70312 q -0.52735,-0.0586 -0.9375,-0.0781 -0.41016,-0.0195 -0.66406,-0.0195 -3.35938,0 -4.51172,2.1875 -0.64453,1.23047 -0.64453,3.78907 l 0,10.17578 -5.60547,0 0,-21.28906 5.3125,0 0,3.71093 q 1.28906,-2.1289 2.24609,-2.91015 1.5625,-1.3086 4.0625,-1.3086 z" />
    <path
       inkscape:connector-curvature="0"
       id="path3373"
       style="font-style:normal;font-variant:normal;font-weight:bold;font-stretch:normal;font-size:medium;line-height:125%;font-family:Helvetica;-inkscape-font-specification:'Helvetica Bold';letter-spacing:0px;word-spacing:0px;fill:#eebf3f;fill-opacity:1;stroke:none;stroke-width:1px;stroke-linecap:butt;stroke-linejoin:miter;stroke-opacity:1"
       d="m 563.95648,217.95651 5.46875,0 0,15.50781 6.9336,-8.00781 6.89453,0 -7.44141,8.14453 7.73438,13.04688 -6.71875,0 -5.09766,-9.10156 -2.30469,2.40234 0,6.69922 -5.46875,0 0,-28.69141 z" />
  </g>
</svg>
